<?xml version="1.0" encoding="UTF-8" standalone="no"?>
<!-- Created with Inkscape (http://www.inkscape.org/) -->

<svg
   width="1260.3038"
   height="122.84025"
   viewBox="0 0 333.45539 32.501483"
   version="1.1"
   id="svg1"
   xml:space="preserve"
   inkscape:version="1.3.2 (091e20e, 2023-11-25)"
   sodipodi:docname="fosstodon-full.svg"
   xmlns:inkscape="http://www.inkscape.org/namespaces/inkscape"
   xmlns:sodipodi="http://sodipodi.sourceforge.net/DTD/sodipodi-0.dtd"
   xmlns="http://www.w3.org/2000/svg"
   xmlns:svg="http://www.w3.org/2000/svg"><sodipodi:namedview
     id="namedview1"
     pagecolor="#ffffff"
     bordercolor="#000000"
     borderopacity="0.25"
     inkscape:showpageshadow="2"
     inkscape:pageopacity="0.0"
     inkscape:pagecheckerboard="0"
     inkscape:deskcolor="#d1d1d1"
     inkscape:document-units="mm"
     showguides="true"
     inkscape:zoom="0.35355339"
     inkscape:cx="865.4987"
     inkscape:cy="217.78889"
     inkscape:window-width="1856"
     inkscape:window-height="1027"
     inkscape:window-x="66"
     inkscape:window-y="25"
     inkscape:window-maximized="0"
     inkscape:current-layer="layer1"
     showgrid="false"><sodipodi:guide
       position="163.93463,144.66845"
       orientation="0,-1"
       id="guide19"
       inkscape:locked="false" /><sodipodi:guide
       position="256.7307,131.88365"
       orientation="0,-1"
       id="guide20"
       inkscape:locked="false" /><sodipodi:guide
       position="-15.529675,123.18666"
       orientation="1,0"
       id="guide21"
       inkscape:locked="false" /><sodipodi:guide
       position="255.43674,100.19929"
       orientation="0,-1"
       id="guide1"
       inkscape:locked="false" /><sodipodi:guide
       position="255.28076,101.50513"
       orientation="0,-1"
       id="guide6"
       inkscape:locked="false" /></sodipodi:namedview><defs
     id="defs1" /><g
     inkscape:label="Layer 1"
     inkscape:groupmode="layer"
     id="layer1"
     transform="translate(-25.35233,-107.07845)"><path
       style="color:#000000;-inkscape-font-specification:'Roboto Heavy';fill:#f9f9f9;stroke-width:2.42547;stroke-linejoin:bevel;stroke-miterlimit:18;-inkscape-stroke:none;paint-order:markers fill stroke"
       d="m 238.80609,107.48261 -1.2133,1.21327 v 29.20041 l 1.2133,1.21203 h 7.03907 l 1.21206,-1.21203 v -13.58183 l 8.0631,14.17845 1.05161,0.61541 h 7.02152 l 1.21204,-1.21203 v -29.20041 l -1.21204,-1.21327 h -7.02152 l -1.21206,1.21327 v 13.5768 l -8.05808,-14.17842 -1.05663,-0.61165 z"
       id="path18" /><path
       style="color:#000000;-inkscape-font-specification:'Roboto Heavy';fill:#f9f9f9;stroke-width:2.42547;stroke-linejoin:bevel;stroke-miterlimit:18;-inkscape-stroke:none;paint-order:markers fill stroke"
       d="m 182.5937,107.48261 -1.2133,1.21327 v 29.20041 l 1.2133,1.21203 h 3.00815 4.03093 2.44537 c 2.09039,0 4.04767,-0.36137 5.83583,-1.09419 l 0.005,-0.005 c 1.7887,-0.74166 3.36198,-1.80139 4.68019,-3.16357 1.32013,-1.36411 2.33708,-2.99063 3.04575,-4.84187 0.72625,-1.86255 1.08546,-3.90092 1.08546,-6.08777 v -1.22206 c 0,-2.201 -0.36148,-4.24327 -1.09045,-6.09651 -0.70798,-1.84697 -1.73047,-3.47096 -3.05956,-4.83186 l -0.005,-0.005 c -1.31893,-1.37618 -2.90079,-2.43675 -4.704,-3.16483 -1.80117,-0.74542 -3.77877,-1.11297 -5.89348,-1.113 h -2.3451 -4.15 z m 8.25237,7.8588 h 1.13181 c 0.8877,0 1.615,0.15305 2.22227,0.43116 l 0.009,0.005 c 0.61822,0.27821 1.11071,0.67428 1.5304,1.24088 l 0.005,0.01 c 0.41658,0.55199 0.75866,1.28493 0.99519,2.23105 l 0.005,0.0145 c 0.24648,0.92729 0.37852,2.05496 0.37852,3.37791 v 1.26468 c 0,1.76491 -0.23452,3.19778 -0.65803,4.29666 l -0.005,0.005 c -0.41299,1.08984 -0.96897,1.81196 -1.67704,2.29749 l -0.005,0.005 c -0.69703,0.4849 -1.5569,0.74829 -2.69982,0.74829 h -1.23209 z"
       id="path17" /><path
       style="color:#000000;-inkscape-font-specification:'Roboto Heavy';fill:#f9f9f9;stroke-width:2.42547;stroke-linejoin:bevel;stroke-miterlimit:18;-inkscape-stroke:none;paint-order:markers fill stroke"
       d="m 127.40407,107.48261 -1.21203,1.21327 v 5.43349 l 1.21203,1.21204 h 7.37124 v 22.55488 l 1.21328,1.21203 h 7.0391 l 1.21328,-1.21203 v -22.55488 h 7.57052 l 1.21205,-1.21204 v -5.43349 l -1.21205,-1.21327 h -8.7838 -7.0391 z"
       id="path16" /><path
       style="color:#000000;-inkscape-font-specification:'Roboto Heavy';fill:#f9f9f9;stroke-width:2.43517;stroke-linejoin:bevel;stroke-miterlimit:18;-inkscape-stroke:none;paint-order:markers fill stroke"
       d="m 26.569208,107.25489 -1.216884,1.21813 v 29.31721 l 1.216884,1.21688 h 7.068499 l 1.216883,-1.21688 v -10.46367 h 10.179293 l 1.216883,-1.21817 v -5.43633 l -1.216883,-1.21687 H 34.85459 v -4.31007 h 11.324446 l 1.218142,-1.21688 v -5.45522 l -1.218142,-1.21813 H 33.637707 31.620473 Z"
       id="path15" /><path
       style="color:#000000;-inkscape-font-specification:'Roboto Heavy';fill:#f9f9f9;stroke-width:2.42547;stroke-linejoin:bevel;stroke-miterlimit:18;-inkscape-stroke:none;paint-order:markers fill stroke"
       d="m 166.16916,107.08023 c -2.02844,0 -3.92546,0.36657 -5.65156,1.10426 -1.70655,0.72192 -3.20341,1.78772 -4.45206,3.1686 -1.2404,1.37327 -2.19715,3.03246 -2.87154,4.9409 l -0.005,0.005 c -0.66626,1.92631 -0.98518,4.06958 -0.98518,6.41363 v 1.18446 c 0,2.34406 0.31892,4.48353 0.98518,6.40987 l 0.005,0.0145 c 0.67535,1.89672 1.63909,3.55216 2.89032,4.93589 l 0.009,0.01 c 1.26075,1.36339 2.76153,2.42627 4.46334,3.15981 l 0.009,0.005 c 1.72434,0.72217 3.61721,1.07541 5.64279,1.07541 2.01322,0 3.89574,-0.35224 5.6077,-1.07541 l 0.01,-0.005 c 1.70297,-0.73406 3.19457,-1.79857 4.4433,-3.16483 l 0.005,-0.005 c 1.25192,-1.38449 2.20837,-3.04308 2.87027,-4.94088 v -0.005 c 0.68043,-1.92789 1.014,-4.0701 1.014,-6.41489 v -1.18446 c 0,-2.34647 -0.3325,-4.49016 -1.014,-6.41865 -0.67454,-1.90883 -1.63561,-3.56811 -2.88908,-4.94091 l -0.005,-0.005 c -1.24848,-1.37923 -2.75069,-2.44435 -4.4671,-3.16483 -10e-4,-6.1e-4 -0.004,5.8e-4 -0.005,0 -1.71262,-0.7375 -3.59449,-1.10301 -5.60896,-1.10301 z m 0,7.93905 c 0.72079,0 1.29443,0.15136 1.79613,0.43117 l 0.0238,0.0145 c 0.51359,0.27134 0.94647,0.66637 1.3311,1.26467 0.38365,0.59679 0.7016,1.39155 0.91874,2.39275 l 0.005,0.0145 c 0.22757,0.98226 0.35095,2.16679 0.35095,3.53958 v 1.22208 c 0,1.35877 -0.12218,2.53916 -0.35095,3.53832 l -0.005,0.01 c -0.21696,0.98844 -0.53393,1.78429 -0.92375,2.40151 l -0.01,0.0145 c -0.37578,0.61198 -0.79615,1.01781 -1.29726,1.29726 -0.5017,0.27981 -1.0791,0.42616 -1.79988,0.42616 -0.76839,0 -1.37,-0.15136 -1.88135,-0.43118 -0.5017,-0.281 -0.93236,-0.69184 -1.32108,-1.30727 -0.37491,-0.6139 -0.68346,-1.40582 -0.89995,-2.38272 v -0.01 c -0.20566,-1.0076 -0.31835,-2.1944 -0.31835,-3.55713 v -1.22207 c 0,-1.38027 0.11255,-2.57447 0.31835,-3.56718 0.21795,-0.99747 0.5274,-1.79664 0.89995,-2.39273 0.37302,-0.59683 0.79419,-0.98645 1.29225,-1.25465 l 0.015,-0.01 c 0.49304,-0.27497 1.08789,-0.43115 1.85627,-0.43115 z"
       id="path13" /><path
       style="color:#000000;-inkscape-font-specification:'Roboto Heavy';fill:#f9f9f9;stroke-width:2.42547;stroke-linejoin:bevel;stroke-miterlimit:18;-inkscape-stroke:none;paint-order:markers fill stroke"
       d="m 114.34868,107.08023 c -1.71459,0 -3.31799,0.20836 -4.80302,0.63049 -1.47496,0.40607 -2.79661,1.00941 -3.93692,1.81867 -1.13681,0.80334 -2.05342,1.80778 -2.70484,2.98435 -0.66705,1.19118 -1.00021,2.54718 -1.00021,3.98454 0,1.47935 0.31826,2.84809 0.97641,4.03594 l 0.005,0.005 c 0.62877,1.11952 1.48399,2.10138 2.53436,2.92668 l 0.009,0.005 c 1.01515,0.78312 2.15661,1.46455 3.42052,2.04681 l 0.01,0.005 c 1.22831,0.55207 2.50223,1.05134 3.82287,1.49154 h 0.005 c 1.06023,0.3491 1.89425,0.68265 2.48172,0.9764 l 0.0289,0.01 c 0.61552,0.28965 1.04583,0.56974 1.27345,0.77207 0.24153,0.21467 0.35303,0.39187 0.40736,0.544 l 0.005,0.0145 c 0.0761,0.20544 0.12408,0.46525 0.12408,0.80092 0,0.32103 -0.0705,0.56931 -0.2181,0.8285 -0.11422,0.18943 -0.30578,0.38028 -0.67808,0.56405 -0.32081,0.14624 -0.86896,0.2657 -1.6432,0.2657 -0.74786,0 -1.38169,-0.0667 -1.90893,-0.18554 -0.002,-6.3e-4 -0.002,-0.005 -0.005,-0.005 -0.49571,-0.12469 -0.86671,-0.308 -1.15188,-0.53019 -0.26661,-0.22023 -0.47347,-0.49767 -0.63422,-0.91372 -0.15603,-0.40385 -0.2607,-0.97639 -0.2607,-1.72468 l -1.21329,-1.21327 h -7.05795 l -1.21329,1.21327 c 0,1.88762 0.38553,3.59261 1.19449,5.05496 l 0.009,0.0145 c 0.79599,1.39675 1.87481,2.57053 3.19867,3.47315 l 0.009,0.005 c 1.29079,0.86539 2.72847,1.50924 4.29164,1.92897 l 0.01,0.005 c 1.55422,0.39923 3.13437,0.59662 4.73283,0.59662 1.72054,0 3.30604,-0.1887 4.75162,-0.58281 1.44327,-0.39363 2.72254,-0.98121 3.80783,-1.77608 l 0.01,-0.005 c 1.0888,-0.81276 1.95042,-1.83275 2.54314,-3.01819 0.60129,-1.20256 0.89117,-2.56394 0.89117,-4.03092 0,-1.36973 -0.24741,-2.64845 -0.76332,-3.79528 l -0.004,-0.005 c -0.49606,-1.12921 -1.23616,-2.14264 -2.18467,-3.00441 l -0.009,-0.005 c -0.92939,-0.86788 -2.04835,-1.61542 -3.34908,-2.25863 -1.26967,-0.64795 -2.70065,-1.2254 -4.29665,-1.7347 h -0.005 c -0.79595,-0.25687 -1.51018,-0.51793 -2.13703,-0.78088 l -0.009,-0.005 c -0.59272,-0.25464 -1.08585,-0.51326 -1.474,-0.76707 l -0.005,-0.005 c -0.002,-0.001 -0.006,-0.002 -0.009,-0.005 -0.34533,-0.23575 -0.57607,-0.46876 -0.72572,-0.66804 -0.10333,-0.1613 -0.15167,-0.29654 -0.15167,-0.50764 0,-0.30233 0.0658,-0.51443 0.24193,-0.76707 l 0.01,-0.0145 c 0.16367,-0.24205 0.41368,-0.45931 0.85231,-0.65427 0.40055,-0.17802 0.97357,-0.29831 1.73345,-0.29831 0.76645,0 1.31803,0.13922 1.69585,0.34093 0.41486,0.2212 0.65803,0.47015 0.83852,0.81471 l 0.015,0.0194 c 0.20037,0.36591 0.31209,0.79739 0.31209,1.36369 l 1.21329,1.21327 h 6.99648 l 1.21328,-1.21327 c 0,-2.04632 -0.53642,-3.91498 -1.61563,-5.47611 -1.05173,-1.55237 -2.53582,-2.75328 -4.35306,-3.56716 -1.81181,-0.83002 -3.87694,-1.23712 -6.15418,-1.23712 z"
       id="path12" /><path
       style="color:#000000;-inkscape-font-specification:'Roboto Heavy';fill:#f9f9f9;stroke-width:2.42547;stroke-linejoin:bevel;stroke-miterlimit:18;-inkscape-stroke:none;paint-order:markers fill stroke"
       d="m 88.640239,107.08023 c -1.7146,0 -3.319246,0.20836 -4.804277,0.63049 -1.474961,0.40607 -2.796606,1.00941 -3.936919,1.81867 -1.136815,0.80334 -2.053426,1.80778 -2.704836,2.98435 -0.667053,1.19118 -0.998957,2.54718 -0.998957,3.98454 0,1.47935 0.317006,2.84809 0.975145,4.03594 l 0.0051,0.005 c 0.628775,1.11952 1.483992,2.10138 2.53437,2.92668 l 0.0051,0.005 c 1.015146,0.78312 2.161626,1.46455 3.425538,2.04681 l 0.0087,0.005 c 1.228306,0.55207 2.502234,1.05134 3.822865,1.49154 h 0.0051 c 1.060236,0.3491 1.895503,0.68265 2.482981,0.9764 l 0.02758,0.01 c 0.615525,0.28965 1.047092,0.56974 1.274705,0.77207 0.241504,0.21467 0.353023,0.39187 0.407353,0.544 l 0.0051,0.0145 c 0.07611,0.20544 0.122822,0.46525 0.122822,0.80092 0,0.31886 -0.06755,0.56618 -0.213078,0.82351 -0.113821,0.19161 -0.305218,0.38312 -0.681847,0.56904 -0.320807,0.14624 -0.870208,0.2657 -1.644457,0.2657 -0.74786,0 -1.381689,-0.0667 -1.908926,-0.18554 -0.0024,-6.3e-4 -0.0024,-0.005 -0.0051,-0.005 -0.495698,-0.12469 -0.865449,-0.308 -1.150619,-0.53019 -0.266609,-0.22023 -0.474725,-0.49767 -0.635472,-0.91372 -0.156031,-0.40385 -0.259455,-0.97639 -0.259455,-1.72468 l -1.213479,-1.21209 h -7.057883 l -1.213291,1.21328 c 0,1.88762 0.384276,3.59261 1.193234,5.05496 l 0.0099,0.0145 c 0.795996,1.39676 1.873563,2.57054 3.197416,3.47316 l 0.0051,0.005 c 1.290784,0.8654 2.728465,1.50924 4.291635,1.92897 l 0.01504,0.005 c 1.554226,0.39925 3.133129,0.59663 4.731577,0.59663 1.720545,0 3.306048,-0.1887 4.751629,-0.58281 1.443254,-0.39363 2.72379,-0.9812 3.809078,-1.77609 l 0.0099,-0.005 c 1.088808,-0.81277 1.95042,-1.83274 2.543151,-3.01819 0.601288,-1.20256 0.891168,-2.56396 0.891168,-4.03092 0,-1.375 -0.25213,-2.65885 -0.772098,-3.80909 -0.49603,-1.12536 -1.233814,-2.13499 -2.17966,-2.99436 l -0.0087,-0.005 c -0.929395,-0.86788 -2.049605,-1.61665 -3.350332,-2.25986 -1.269679,-0.64793 -2.700653,-1.2254 -4.296648,-1.73469 h -0.0039 c -0.795959,-0.25689 -1.510176,-0.51794 -2.137042,-0.78089 l -0.0099,-0.005 c -0.592712,-0.25465 -1.084592,-0.51328 -1.472745,-0.76709 l -0.0051,-0.005 c -0.0024,-0.001 -0.0062,-0.003 -0.0087,-0.005 -0.345324,-0.23575 -0.576072,-0.46877 -0.725717,-0.66804 -0.10333,-0.1613 -0.151664,-0.29531 -0.151664,-0.5064 0,-0.30232 0.06585,-0.51567 0.241916,-0.76832 l 0.0099,-0.0145 c 0.163671,-0.24206 0.413682,-0.45931 0.852308,-0.65427 0.400552,-0.17803 0.973566,-0.29831 1.733451,-0.29831 0.766449,0 1.318022,0.13922 1.695848,0.34092 0.414856,0.22121 0.658039,0.47017 0.838523,0.81471 l 0.01504,0.0194 c 0.200369,0.36591 0.307082,0.7974 0.307082,1.36371 l 1.21329,1.21327 h 7.00148 l 1.213278,-1.21327 c 0,-2.04633 -0.53641,-3.91498 -1.615618,-5.47611 -1.051727,-1.55239 -2.537071,-2.75328 -4.354304,-3.56718 -1.811821,-0.83002 -3.875691,-1.23584 -6.15293,-1.23584 z"
       id="path11" /><path
       style="color:#000000;-inkscape-font-specification:'Roboto Heavy';fill:#f9f9f9;stroke-width:2.42547;stroke-linejoin:bevel;stroke-miterlimit:18;-inkscape-stroke:none;paint-order:markers fill stroke"
       d="m 61.045429,107.08023 c -2.028454,0 -3.925455,0.36657 -5.651573,1.10426 -1.706552,0.72192 -3.204658,1.78772 -4.453321,3.1686 -1.240379,1.37327 -2.19588,3.03246 -2.870282,4.9409 l -0.0051,0.005 c -0.666251,1.92631 -0.990182,4.06958 -0.990182,6.41363 v 1.18446 c 0,2.34406 0.323931,4.48353 0.990182,6.40987 l 0.0051,0.0145 c 0.675346,1.89672 1.637849,3.55216 2.889082,4.93589 l 0.0099,0.01 c 1.260762,1.36339 2.760282,2.42627 4.462098,3.15981 l 0.0099,0.005 c 1.724345,0.72217 3.615961,1.07541 5.641547,1.07541 2.013217,0 3.896989,-0.35224 5.608954,-1.07541 l 0.0051,-0.005 c 1.702979,-0.73406 3.199575,-1.79857 4.448311,-3.16483 l 0.0051,-0.005 c 1.251923,-1.38449 2.208386,-3.04308 2.870282,-4.94088 v -0.005 c 0.680504,-1.92741 1.013996,-4.06883 1.013996,-6.41363 v -1.18446 c 0,-2.34647 -0.332498,-4.49142 -1.013996,-6.41991 -0.674542,-1.90883 -1.635619,-3.56811 -2.889084,-4.94091 l -0.0051,-0.005 c -1.248481,-1.37923 -2.750702,-2.44435 -4.467109,-3.16483 -0.0014,-6.1e-4 -0.0036,5.8e-4 -0.0051,0 -1.712612,-0.7375 -3.594483,-1.10425 -5.608955,-1.10425 z m 0,7.93905 c 0.720784,0 1.293159,0.15136 1.794865,0.43117 l 0.02378,0.0145 c 0.513606,0.27134 0.94648,0.66637 1.331106,1.26467 0.383644,0.59679 0.70161,1.39155 0.918744,2.39275 l 0.0051,0.0145 c 0.227582,0.98226 0.345939,2.16679 0.345939,3.53958 v 1.22208 c 0,1.35877 -0.120982,2.53916 -0.349701,3.53832 v 0.01 c -0.216958,0.98844 -0.533923,1.78429 -0.923753,2.40151 l -0.0099,0.0145 c -0.375787,0.61198 -0.801162,1.01781 -1.302281,1.29726 -0.501707,0.27981 -1.075336,0.42619 -1.796119,0.42616 -0.768395,0 -1.368742,-0.15136 -1.880099,-0.43118 -0.501708,-0.281 -0.933622,-0.69184 -1.322334,-1.30727 -0.374905,-0.6139 -0.683459,-1.40582 -0.89994,-2.38272 v -0.01 c -0.20568,-1.0076 -0.317108,-2.1944 -0.317108,-3.55713 v -1.22207 c 0,-1.37481 0.107887,-2.56303 0.312095,-3.55336 0.218123,-1.00578 0.530216,-1.80696 0.904953,-2.40655 0.373019,-0.59683 0.79544,-0.98645 1.293509,-1.25465 l 0.01382,-0.01 c 0.493044,-0.27497 1.089142,-0.43115 1.857537,-0.43115 z"
       id="path2" /><path
       id="path1-3"
       d="m 221.97039,107.44354 c -5.13894,0 -6.23954,0.32198 -6.82602,0.4097 -3.37469,0.50692 -6.45141,2.91469 -7.20128,6.36078 -0.35578,1.69625 -0.39417,3.57813 -0.32686,5.30366 0.0962,2.47612 0.11505,4.9421 0.3362,7.40851 0.15383,1.63778 0.41855,3.26078 0.79831,4.85951 0.71146,2.95384 3.58596,5.41077 6.40302,6.41003 3.0141,1.04312 6.25943,1.2185 9.36482,0.50196 0.34134,-0.0828 0.67763,-0.17585 1.01415,-0.28299 0.75471,-0.2437 1.63948,-0.51615 2.29332,-0.9938 0.009,-0.005 0.0137,-0.017 0.0184,-0.0245 0.005,-0.01 0.0112,-0.0217 0.0112,-0.0342 v -2.38874 c 0,0 -5.9e-4,-0.0194 -0.0112,-0.0289 0,-0.01 -0.009,-0.0217 -0.0184,-0.0246 -0.009,-0.005 -0.0209,-0.0125 -0.0288,-0.017 h -0.029 c -1.99028,0.48261 -4.03305,0.72665 -6.07614,0.72175 -3.52377,0 -4.47073,-1.69623 -4.73994,-2.39811 -0.21619,-0.60923 -0.35593,-1.24796 -0.41361,-1.89141 0,-0.01 -1.1e-4,-0.0217 0.005,-0.0298 0,-0.01 0.009,-0.0217 0.0209,-0.0246 0.009,-0.005 0.0209,-0.01 0.0288,-0.0145 h 0.0336 c 1.95659,0.4777 3.96579,0.72088 5.98006,0.72088 0.48551,0 0.96638,-2.5e-4 1.45193,-0.017 2.02387,-0.0587 4.15784,-0.16033 6.15281,-0.55518 0.0481,-0.01 0.10115,-0.0217 0.14458,-0.0297 2.62746,-0.51326 5.14079,-1.94571 6.0746,-5.23952 h -0.002 v -8.00357 c 0,-1.68653 -0.69211,-2.5396 -2.08142,-2.5396 -1.53353,0 -2.30741,1.01874 -2.30741,3.02204 v 4.38178 h -3.17296 v -4.38178 c 0,-2.0131 -0.76424,-3.02204 -2.30738,-3.02204 -1.38442,0 -2.08143,0.85307 -2.08143,2.5396 v 7.99885 h -3.19253 v -8.24281 c 0,-1.68162 0.4184,-3.02228 1.25966,-4.0166 0.87013,-0.99437 2.00916,-1.4958 3.4177,-1.4958 1.63447,0 2.8749,0.64289 3.69212,1.92975 l 0.79834,1.3652 0.79756,-1.3652 c 0.81718,-1.28192 2.05286,-1.92975 3.69215,-1.92975 0.46826,0 0.90637,0.0567 1.31512,0.16808 -1.08203,-2.46858 -3.52038,-4.29043 -6.30995,-4.70626 -0.5864,-0.0878 -2.80214,-0.40972 -7.93627,-0.40972 z"
       style="fill:#f9f9f9;stroke-width:0.400334" /><path
       id="path10"
       style="font-weight:900;font-size:41.1032px;line-height:1;font-family:Roboto;-inkscape-font-specification:'Roboto Heavy';text-align:center;letter-spacing:0.10704px;word-spacing:0px;text-anchor:middle;fill:#f9f9f9;stroke:#f9f9f9;stroke-width:2.45701;stroke-linecap:round;stroke-linejoin:bevel;stroke-miterlimit:19.3;paint-order:stroke markers fill"
       d="m 334.96043,108.72825 v 29.22199 h 2.68924 4.35529 4.59559 c 2.40838,0 4.42877,-0.32153 6.06113,-0.96377 1.63235,-0.64223 2.85698,-1.60526 3.67316,-2.88974 0.82956,-1.28448 1.24437,-2.88328 1.24437,-4.79661 0,-1.12391 -0.24754,-2.20107 -0.74259,-3.23133 -0.49506,-1.03025 -1.31792,-1.85987 -2.46859,-2.48873 -0.42085,-0.23271 -0.89882,-0.41631 -1.43144,-0.55191 0.25718,-0.10036 0.50332,-0.20834 0.72864,-0.33124 1.19081,-0.65562 2.04076,-1.50505 2.5492,-2.54869 0.50844,-1.04364 0.76274,-2.16092 0.76274,-3.35173 0,-1.36475 -0.26107,-2.54926 -0.78289,-3.55275 -0.52182,-1.01688 -1.28474,-1.85953 -2.28824,-2.52853 -0.99011,-0.66899 -2.1939,-1.16406 -3.61218,-1.48518 -1.41827,-0.3345 -3.03062,-0.50178 -4.83691,-0.50178 z m 7.04453,5.43894 h 3.45199 c 1.04364,0 1.89307,0.12038 2.54868,0.36122 0.669,0.22746 1.15729,0.59538 1.46503,1.10381 0.30774,0.50844 0.46198,1.17755 0.46198,2.00711 0,0.72252 -0.15424,1.32441 -0.46198,1.80609 -0.29436,0.48168 -0.7691,0.84959 -1.42472,1.10381 -0.65562,0.24084 -1.53214,0.36122 -2.6293,0.36122 h -3.41168 z m 0,11.35952 h 4.87671 c 0.89645,0 1.61247,0.15373 2.14767,0.46147 0.5352,0.29436 0.92292,0.71594 1.16375,1.26452 0.25422,0.54858 0.38137,1.19738 0.38137,1.94665 0,0.61548 -0.1334,1.17776 -0.401,1.6862 -0.25422,0.49506 -0.67581,0.89632 -1.26453,1.20406 -0.57534,0.29436 -1.34503,0.44132 -2.30838,0.44132 h -4.59559 z" /><path
       style="font-weight:900;font-size:41.1032px;line-height:1;font-family:Roboto;-inkscape-font-specification:'Roboto Heavy';text-align:center;letter-spacing:0.10704px;word-spacing:0px;text-anchor:middle;fill:#f9f9f9;stroke:#f9f9f9;stroke-width:2.45701;stroke-linecap:round;stroke-linejoin:bevel;stroke-miterlimit:19.3;paint-order:stroke markers fill"
       d="m 323.39324,108.72822 h 7.04454 v 19.0865 q 0,3.41188 -1.42496,5.78013 -1.42497,2.34819 -3.99392,3.55238 -2.56895,1.2042 -6.04104,1.2042 -3.43196,0 -6.04105,-1.2042 -2.58902,-1.20419 -4.05412,-3.55238 -1.44504,-2.36825 -1.44504,-5.78013 v -19.0865 h 7.06462 v 19.0865 q 0,1.80629 0.52181,2.95028 0.52182,1.12391 1.52532,1.64573 1.00349,0.52182 2.42846,0.52182 1.44503,0 2.42846,-0.52182 0.98342,-0.52182 1.48517,-1.64573 0.50175,-1.14399 0.50175,-2.95028 z"
       id="path8" /><path
       id="path7"
       style="font-weight:900;font-size:41.1032px;line-height:1;font-family:Roboto;-inkscape-font-specification:'Roboto Heavy';text-align:center;letter-spacing:0.10704px;word-spacing:0px;text-anchor:middle;fill:#f9f9f9;stroke:#f9f9f9;stroke-width:2.45701;stroke-linecap:round;stroke-linejoin:bevel;stroke-miterlimit:19.3;paint-order:stroke markers fill"
       d="m 278.55044,108.72825 v 29.22199 h 7.04453 v -12.20287 h 10.35596 v 12.20287 h 7.02437 v -29.22199 h -7.02437 v 11.60032 h -10.35596 v -11.60032 z" /></g></svg>
